<svg aria-hidden="true" style="position: absolute; width: 0; height: 0; overflow: hidden;" version="1.1" xmlns="http://www.w3.org/2000/svg" xmlns:xlink="http://www.w3.org/1999/xlink">
<defs>
<symbol id="icon-chevron" viewBox="0 0 32 32">
<path fill="#393939" style="fill: var(--color1, #393939)" d="M32 16c0 8.837-7.163 16-16 16s-16-7.163-16-16c0-8.837 7.163-16 16-16s16 7.163 16 16z"></path>
<path fill="#fff" style="fill: var(--color2, #fff)" d="M10.022 13.35c0.216-0.175 0.533-0.141 0.708 0.075l5.392 6.676c0.175 0.216 0.141 0.533-0.075 0.708s-0.533 0.141-0.708-0.075l-5.392-6.676c-0.175-0.216-0.141-0.533 0.075-0.708z"></path>
<path fill="#fff" style="fill: var(--color2, #fff)" d="M21.47 13.15c0.221 0.168 0.263 0.483 0.095 0.703l-5.186 6.808c-0.168 0.221-0.483 0.263-0.703 0.095s-0.263-0.483-0.095-0.703l5.186-6.808c0.168-0.221 0.483-0.263 0.703-0.095z"></path>
</symbol>
<symbol id="icon-clock" viewBox="0 0 32 32">
<path d="M21.848 20.923h-12.758c-0.135 0-0.265 0.054-0.361 0.15l-6.124 6.124 0.722 0.722 5.974-5.974h11.985c-0.106 0.606-0.439 1.531-1.48 1.531h-5.613v1.021h5.613c2.018 0 2.552-2.003 2.552-3.062 0-0.282-0.229-0.51-0.51-0.51z"></path>
<path d="M28.333 17.5c-0.199-0.199-0.522-0.199-0.722 0l-4.593 4.593 0.722 0.722 4.192-4.192c0.691 0.917 0.55 2.212-0.32 2.96l-5.974 5.974h-10.505c-0.135 0-0.265 0.054-0.361 0.15l-3.572 3.572 0.722 0.722 3.423-3.423h10.505c0.135 0 0.265-0.054 0.361-0.15l6.124-6.124c1.9-1.9 0.831-3.973 0-4.804z"></path>
<path d="M16.745 0c-5.355 0-9.696 4.341-9.696 9.696s4.341 9.696 9.696 9.696c5.352-0.006 9.69-4.343 9.696-9.696 0-5.355-4.341-9.696-9.696-9.696zM16.745 18.371c-4.791 0-8.675-3.884-8.675-8.675s3.884-8.675 8.675-8.675c4.789 0.005 8.67 3.886 8.675 8.675 0 4.791-3.884 8.675-8.675 8.675z"></path>
<path d="M16.745 2.552c-3.946 0-7.144 3.199-7.144 7.144s3.199 7.144 7.144 7.144c3.944-0.004 7.14-3.2 7.144-7.144 0-3.946-3.199-7.144-7.144-7.144zM17.256 15.798v-1.51h-1.021v1.51c-2.975-0.245-5.347-2.617-5.592-5.592h1.51v-1.021h-1.51c0.246-2.975 2.617-5.347 5.592-5.592v1.51h1.021v-1.509c2.973 0.248 5.343 2.618 5.592 5.592h-1.509v1.021h1.51c-0.245 2.975-2.617 5.347-5.592 5.592z"></path>
<path d="M18.127 10.355c0.095-0.2 0.149-0.423 0.149-0.659 0-0.667-0.426-1.233-1.021-1.443v-2.129h-1.021v2.129c-0.595 0.21-1.021 0.777-1.021 1.443-0 0.846 0.685 1.531 1.531 1.531 0.237 0 0.461-0.054 0.661-0.15l1.529 1.529 0.722-0.722-1.53-1.53zM16.745 10.206c-0.282 0-0.51-0.229-0.51-0.51s0.229-0.51 0.51-0.51c0.282 0 0.51 0.229 0.51 0.51s-0.229 0.51-0.51 0.51z"></path>
</symbol>
<symbol id="icon-computer" viewBox="0 0 32 32">
<path d="M6.646 7.146l-1.5 1.5c-0.090 0.090-0.146 0.215-0.146 0.354s0.056 0.263 0.146 0.354l1.5 1.5 0.707-0.707-1.147-1.146 1.146-1.146z"></path>
<path d="M8.028 10.826l1.499-3.999 0.936 0.351-1.499 3.999z"></path>
<path d="M11.854 10.854l1.5-1.5c0.090-0.090 0.146-0.215 0.146-0.354s-0.056-0.263-0.146-0.354l-1.5-1.5-0.707 0.707 1.146 1.147-1.146 1.146z"></path>
<path d="M5 13h2v1h-2z"></path>
<path d="M8 13h5v1h-5z"></path>
<path d="M6 15h2v1h-2z"></path>
<path d="M9 15h5v1h-5z"></path>
<path d="M15 15h1v1h-1z"></path>
<path d="M6 17h2v1h-2z"></path>
<path d="M9 17h5v1h-5z"></path>
<path d="M15 17h1v1h-1z"></path>
<path d="M30.571 6.505l-1.341-0.192c-0.104-0.32-0.219-0.591-0.354-0.849l0.014 0.030 0.813-1.083c0.062-0.082 0.1-0.187 0.1-0.3 0-0.138-0.056-0.263-0.146-0.354l-1.414-1.414c-0.090-0.090-0.215-0.146-0.353-0.146-0.113 0-0.217 0.037-0.301 0.101l0.001-0.001-1.084 0.812c-0.229-0.121-0.5-0.236-0.781-0.328l-0.038-0.011-0.192-1.341c-0.036-0.244-0.244-0.429-0.495-0.429-0 0-0 0-0 0h-2c-0 0-0 0-0 0-0.251 0-0.459 0.185-0.495 0.426l-0 0.003-0.192 1.341c-0.32 0.103-0.591 0.218-0.849 0.353l0.030-0.014-1.084-0.812c-0.082-0.062-0.187-0.1-0.3-0.1-0.138 0-0.263 0.056-0.353 0.146v0l-1.414 1.414c-0.090 0.090-0.146 0.216-0.146 0.354 0 0.113 0.038 0.217 0.101 0.301l-0.001-0.001 0.813 1.083c-0.121 0.229-0.236 0.5-0.329 0.781l-0.011 0.038-1.341 0.192c-0.244 0.036-0.429 0.244-0.429 0.495 0 0 0 0 0 0v0 2c0 0 0 0 0 0 0 0.251 0.185 0.459 0.426 0.495l0.003 0 1.341 0.191c0.104 0.32 0.219 0.591 0.354 0.849l-0.014-0.030-0.813 1.083c-0.062 0.082-0.1 0.187-0.1 0.3 0 0.138 0.056 0.263 0.146 0.354l1.414 1.414c0.090 0.090 0.215 0.146 0.353 0.146 0.113 0 0.217-0.037 0.301-0.101l-0.001 0.001 1.084-0.812c0.229 0.121 0.5 0.236 0.781 0.328l0.038 0.011 0.192 1.341c0.036 0.244 0.244 0.429 0.495 0.429 0 0 0 0 0 0h2c0 0 0 0 0 0 0.251 0 0.459-0.185 0.495-0.426l0-0.003 0.192-1.341c0.32-0.104 0.591-0.218 0.85-0.353l-0.030 0.014 1.084 0.812c0.082 0.062 0.187 0.1 0.3 0.1 0.138 0 0.263-0.056 0.353-0.146v0l1.414-1.414c0.090-0.090 0.146-0.216 0.146-0.354 0-0.113-0.038-0.217-0.101-0.301l0.001 0.001-0.813-1.083c0.121-0.229 0.236-0.5 0.329-0.781l0.011-0.038 1.341-0.191c0.244-0.036 0.429-0.244 0.429-0.495 0-0 0-0 0-0v0-2c0-0 0-0 0-0 0-0.251-0.185-0.459-0.426-0.495l-0.003-0zM30 8.566l-1.232 0.176c-0.202 0.030-0.362 0.176-0.413 0.368l-0.001 0.003c-0.116 0.447-0.283 0.839-0.5 1.199l0.011-0.020c-0.044 0.073-0.070 0.161-0.070 0.255 0 0.113 0.038 0.218 0.101 0.302l-0.001-0.001 0.746 0.995-0.8 0.8-0.995-0.746c-0.082-0.062-0.187-0.1-0.3-0.1-0.094 0-0.182 0.026-0.257 0.071l0.002-0.001c-0.339 0.205-0.731 0.373-1.147 0.481l-0.031 0.007c-0.195 0.051-0.342 0.212-0.372 0.411l-0 0.003-0.176 1.232h-1.133l-0.175-1.232c-0.030-0.202-0.177-0.363-0.369-0.413l-0.003-0.001c-0.447-0.115-0.839-0.282-1.198-0.499l0.020 0.011c-0.073-0.044-0.161-0.070-0.255-0.070-0.113 0-0.217 0.038-0.301 0.101l0.001-0.001-0.995 0.746-0.8-0.8 0.746-0.995c0.063-0.083 0.1-0.187 0.1-0.301 0-0.094-0.026-0.182-0.071-0.257l0.001 0.002c-0.205-0.339-0.373-0.732-0.482-1.147l-0.007-0.031c-0.051-0.195-0.212-0.341-0.411-0.371l-0.003-0-1.232-0.177v-1.133l1.232-0.176c0.202-0.030 0.362-0.176 0.413-0.368l0.001-0.003c0.116-0.447 0.283-0.839 0.5-1.199l-0.011 0.020c0.044-0.073 0.070-0.161 0.070-0.255 0-0.113-0.038-0.218-0.101-0.302l0.001 0.001-0.746-0.995 0.8-0.8 0.995 0.746c0.082 0.062 0.187 0.1 0.3 0.1 0.094 0 0.182-0.026 0.257-0.071l-0.002 0.001c0.339-0.205 0.731-0.373 1.147-0.481l0.031-0.007c0.195-0.051 0.342-0.212 0.372-0.411l0-0.003 0.176-1.232h1.133l0.175 1.232c0.030 0.202 0.177 0.363 0.369 0.413l0.003 0.001c0.447 0.115 0.839 0.282 1.198 0.499l-0.020-0.011c0.073 0.044 0.161 0.070 0.255 0.070 0.113 0 0.217-0.038 0.301-0.101l-0.001 0.001 0.995-0.746 0.8 0.8-0.746 0.995c-0.063 0.083-0.1 0.187-0.1 0.301 0 0.094 0.026 0.182 0.071 0.257l-0.001-0.002c0.205 0.339 0.373 0.732 0.482 1.147l0.007 0.031c0.051 0.195 0.212 0.341 0.411 0.371l0.003 0 1.232 0.176z"></path>
<path d="M24 5c-1.657 0-3 1.343-3 3s1.343 3 3 3c1.657 0 3-1.343 3-3v0c-0.002-1.656-1.344-2.998-3-3h-0zM24 10c-1.105 0-2-0.895-2-2s0.895-2 2-2c1.105 0 2 0.895 2 2v0c0 1.105-0.895 2-2 2v0z"></path>
<path d="M26 20h-24v-12.5c0-0.828 0.672-1.5 1.5-1.5v0h14v-1h-14c-1.38 0.002-2.498 1.12-2.5 2.5v15c0.002 1.38 1.12 2.498 2.5 2.5h6.434l-0.375 3h-1.059c-0.552 0-1 0.448-1 1v0 1c0 0.552 0.448 1 1 1v0h11c0.552 0 1-0.448 1-1v0-1c0-0.552-0.448-1-1-1v0h-1.058l-0.375-3h6.433c1.38-0.002 2.498-1.12 2.5-2.5v-8h-1zM19.5 30h-11v-1h11zM17.433 28h-6.867l0.375-3h6.117zM24.5 24h-21c-0.828 0-1.5-0.672-1.5-1.5v0-1.5h24v1.5c0 0.828-0.672 1.5-1.5 1.5v0z"></path>
<path d="M23 22h1v1h-1z"></path>
</symbol>
<symbol id="icon-easy" viewBox="0 0 32 32">
<path d="M11.5 19h-7c-0.276 0-0.5 0.224-0.5 0.5v0 6c0 0.276 0.224 0.5 0.5 0.5h7c0.276 0 0.5-0.224 0.5-0.5v0-6c0-0.276-0.224-0.5-0.5-0.5v0zM11 25h-6v-5h6z"></path>
<path d="M6 21h2v1h-2z"></path>
<path d="M8 23h2v1h-2z"></path>
<path d="M23.75 4h-15.25v-2.5c0 0 0 0 0-0 0-0.276-0.224-0.5-0.5-0.5-0.115 0-0.221 0.039-0.306 0.105l0.001-0.001-6.5 5c-0.119 0.092-0.195 0.235-0.195 0.396s0.076 0.304 0.194 0.395l0.001 0.001 6.5 5c0.083 0.065 0.19 0.104 0.305 0.104 0.276 0 0.5-0.224 0.5-0.5 0 0 0 0 0-0v0-2.5h13.5c2.208 0.003 3.997 1.792 4 4v9c0 0.002 0 0.004 0 0.007 0 1.853-1.261 3.41-2.972 3.862l-0.028 0.006v-11.375c0-0.276-0.224-0.5-0.5-0.5h-21c-0.276 0-0.5 0.224-0.5 0.5v0 16c0 0.276 0.224 0.5 0.5 0.5h22.25c4.002-0.005 7.245-3.248 7.25-7.25v-12.5c-0.005-4.002-3.248-7.245-7.25-7.25h-0zM22 15v12h-7v-12zM9 15v2h-2v-2zM2 15h4v2.5c0 0.276 0.224 0.5 0.5 0.5h3c0.276 0 0.5-0.224 0.5-0.5v0-2.5h4v12h-12zM30 23.75c-0.004 3.45-2.8 6.246-6.25 6.25h-21.75v-2h20.5c0.276 0 0.5-0.224 0.5-0.5v0-0.6c2.298-0.478 4-2.486 4-4.892 0-0.003 0-0.005 0-0.008v0-9c-0.003-2.76-2.24-4.997-5-5h-14c-0.276 0-0.5 0.224-0.5 0.5v0 1.985l-5.18-3.985 5.18-3.985v1.985c0 0.276 0.224 0.5 0.5 0.5h15.75c3.45 0.004 6.246 2.8 6.25 6.25v0z"></path>
<path d="M20 25h1v1h-1z"></path>
<path d="M18 25h1v1h-1z"></path>
<path d="M16 25h1v1h-1z"></path>
</symbol>
<symbol id="icon-growth" viewBox="0 0 32 32">
<path d="M31.531 30.052h-2.436v-15.022c0-0.259-0.21-0.469-0.469-0.469s-0.469 0.21-0.469 0.469v15.022h-3.103l-0-19.897h3.103v2.688c0 0.259 0.21 0.469 0.469 0.469s0.469-0.21 0.469-0.469v-3.157c0-0.259-0.21-0.469-0.469-0.469h-4.041c-0.259 0-0.469 0.21-0.469 0.469v2.688h-3.572c-0.259 0-0.469 0.21-0.469 0.469v2.688h-3.572c-0.259 0-0.469 0.21-0.469 0.469v2.688h-3.572c-0.259 0-0.469 0.21-0.469 0.469v2.688h-3.572c-0.259 0-0.469 0.21-0.469 0.469v2.435h-3.572c-0.259 0-0.469 0.21-0.469 0.469v1.306c0 0.259 0.21 0.469 0.469 0.469s0.469-0.21 0.469-0.469v-0.837h3.103v4.366h-3.103v-1.342c0-0.259-0.21-0.469-0.469-0.469s-0.469 0.21-0.469 0.469v1.342h-1.967v-29.584c0-0.259-0.21-0.469-0.469-0.469s-0.469 0.21-0.469 0.469v2.435h-0.541c-0.259 0-0.469 0.21-0.469 0.469s0.21 0.469 0.469 0.469h0.541v3.103h-0.541c-0.259 0-0.469 0.21-0.469 0.469s0.21 0.469 0.469 0.469h0.541v3.103h-0.541c-0.259 0-0.469 0.21-0.469 0.469s0.21 0.469 0.469 0.469h0.541v3.103h-0.541c-0.259 0-0.469 0.21-0.469 0.469s0.21 0.469 0.469 0.469h0.541v3.103h-0.541c-0.259 0-0.469 0.21-0.469 0.469s0.21 0.469 0.469 0.469h0.541v3.103h-0.541c-0.259 0-0.469 0.21-0.469 0.469s0.21 0.469 0.469 0.469h0.541v3.103h-0.541c-0.259 0-0.469 0.21-0.469 0.469s0.21 0.469 0.469 0.469h0.541v2.435c0 0.259 0.21 0.469 0.469 0.469h2.435v0.541c0 0.259 0.21 0.469 0.469 0.469s0.469-0.21 0.469-0.469v-0.541h3.103v0.541c0 0.259 0.21 0.469 0.469 0.469s0.469-0.21 0.469-0.469v-0.541h3.103v0.541c0 0.259 0.21 0.469 0.469 0.469s0.469-0.21 0.469-0.469v-0.541h3.103v0.541c0 0.259 0.21 0.469 0.469 0.469s0.469-0.21 0.469-0.469v-0.541h3.103v0.541c0 0.259 0.21 0.469 0.469 0.469s0.469-0.21 0.469-0.469v-0.541h3.103v0.541c0 0.259 0.21 0.469 0.469 0.469s0.469-0.21 0.469-0.469v-0.541h3.103v0.541c0 0.259 0.21 0.469 0.469 0.469s0.469-0.21 0.469-0.469v-0.541h2.436c0.259 0 0.469-0.21 0.469-0.469s-0.21-0.469-0.469-0.469zM8.893 22.782h3.103v7.27h-3.103zM12.933 19.625h3.103v10.427h-3.103zM16.974 16.469h3.103v13.584h-3.103zM21.014 13.312h3.103v16.74h-3.103z"></path>
<path d="M5.381 21.152c0.395 0 0.767-0.154 1.046-0.433l7.057-7.057c0.183-0.183 0.183-0.48 0-0.663s-0.48-0.183-0.663 0l-7.057 7.057c-0.102 0.102-0.238 0.158-0.383 0.158s-0.28-0.056-0.382-0.158c-0.103-0.102-0.159-0.239-0.159-0.383s0.056-0.28 0.159-0.383l16.47-16.47c0.134-0.134 0.174-0.336 0.102-0.511s-0.244-0.289-0.433-0.289h-1.476c-0.298 0-0.541-0.243-0.541-0.542s0.243-0.541 0.541-0.541h3.914c0.298 0 0.541 0.243 0.541 0.541v3.914c0 0.299-0.243 0.542-0.541 0.542s-0.541-0.243-0.541-0.542v-1.476c0-0.19-0.114-0.361-0.289-0.433s-0.377-0.032-0.511 0.102l-7.867 7.867c-0.183 0.183-0.183 0.48 0 0.663s0.48 0.183 0.663 0l7.067-7.067v0.344c0 0.816 0.663 1.479 1.479 1.479s1.479-0.664 1.479-1.479v-3.914c0-0.815-0.663-1.479-1.479-1.479h-3.914c-0.815 0-1.479 0.663-1.479 1.479s0.663 1.479 1.479 1.479h0.344l-15.67 15.67c-0.28 0.279-0.434 0.651-0.434 1.046s0.154 0.767 0.434 1.046c0.279 0.279 0.65 0.433 1.045 0.433z"></path>
</symbol>
<symbol id="icon-line" viewBox="0 0 32 32">
<path fill="#63c3ef" style="fill: var(--color3, #63c3ef)" d="M0 15.36h32v1.28h-32z"></path>
</symbol>
<symbol id="icon-menu" viewBox="0 0 32 32">
<path d="M28.667 32h-25.333c-1.839 0-3.333-1.496-3.333-3.333v-25.333c0-1.837 1.495-3.333 3.333-3.333h25.333c1.839 0 3.333 1.496 3.333 3.333v25.333c0 1.837-1.495 3.333-3.333 3.333zM3.333 1.333c-1.103 0-2 0.897-2 2v25.333c0 1.103 0.897 2 2 2h25.333c1.103 0 2-0.897 2-2v-25.333c0-1.103-0.897-2-2-2z"></path>
<path d="M22 10.667h-12c-0.368 0-0.667-0.299-0.667-0.667s0.299-0.667 0.667-0.667h12c0.368 0 0.667 0.299 0.667 0.667s-0.299 0.667-0.667 0.667z"></path>
<path d="M22 16.667h-12c-0.368 0-0.667-0.299-0.667-0.667s0.299-0.667 0.667-0.667h12c0.368 0 0.667 0.299 0.667 0.667s-0.299 0.667-0.667 0.667z"></path>
<path d="M22 22.667h-12c-0.368 0-0.667-0.299-0.667-0.667s0.299-0.667 0.667-0.667h12c0.368 0 0.667 0.299 0.667 0.667s-0.299 0.667-0.667 0.667z"></path>
</symbol>
<symbol id="icon-quotes" viewBox="0 0 32 32">
<path d="M0.007 22.205c0 4.207 3.41 7.617 7.617 7.617s7.617-3.41 7.617-7.617-3.41-7.617-7.617-7.617c-0.865 0-1.692 0.151-2.467 0.416 1.714-9.832 9.381-16.172 2.274-10.954-7.881 5.786-7.433 17.922-7.424 18.144 0 0.003-0 0.007-0 0.010z"></path>
<path d="M16.765 22.205c0 4.207 3.41 7.617 7.617 7.617s7.617-3.41 7.617-7.617-3.41-7.617-7.618-7.617c-0.865 0-1.692 0.151-2.467 0.416 1.714-9.832 9.381-16.172 2.274-10.954-7.881 5.786-7.433 17.922-7.424 18.144 0 0.003-0 0.007-0 0.010z"></path>
</symbol>
<symbol id="icon-search" viewBox="0 0 32 32">
<path fill="#ecf6fc" style="fill: var(--color4, #ecf6fc)" d="M1.467 11.467c-0.052 0.411-0.081 0.887-0.081 1.369 0 1.83 0.424 3.56 1.178 5.099l-0.030-0.068c0.24 0.375 0.655 0.62 1.127 0.62 0.17 0 0.333-0.032 0.483-0.090l-0.009 0.003c0.419-0.15 0.714-0.544 0.714-1.007 0-0.221-0.067-0.427-0.183-0.597l0.002 0.004c-0.599-1.319-0.949-2.86-0.949-4.483 0-0.205 0.006-0.409 0.017-0.612l-0.001 0.028c0.394-5.287 4.78-9.427 10.133-9.427 5.611 0 10.16 4.549 10.16 10.16 0 0.258-0.010 0.514-0.029 0.767l0.002-0.034c-0.492 5.256-4.882 9.336-10.224 9.336-2.044 0-3.949-0.598-5.55-1.628l0.041 0.024c-0.184-0.155-0.424-0.25-0.686-0.25-0.386 0-0.724 0.205-0.911 0.512l-0.003 0.005c-0.16 0.202-0.257 0.461-0.257 0.742 0 0.41 0.206 0.772 0.52 0.989l0.004 0.003c1.709 1.090 3.754 1.81 5.951 1.997l0.049 0.003c0.28 0.023 0.607 0.035 0.937 0.035 2.7 0 5.198-0.863 7.234-2.327l-0.037 0.025 7.333 8.533c0.2 0.224 0.48 0.373 0.796 0.4l0.004 0c0.074 0.021 0.16 0.033 0.248 0.033 0.271 0 0.515-0.115 0.685-0.299l0.001-0.001c0.233-0.219 0.378-0.53 0.378-0.874 0-0.274-0.092-0.527-0.247-0.729l0.002 0.003-7.467-8.533c1.999-1.995 3.291-4.698 3.465-7.701l0.002-0.032c0.026-0.299 0.040-0.648 0.040-1 0-6.871-5.57-12.44-12.44-12.44-6.519 0-11.866 5.014-12.397 11.395l-0.003 0.045z"></path>
</symbol>
<symbol id="icon-settings" viewBox="0 0 32 32">
<path d="M22.041 20.558h-13.178c-0.14 0-0.274 0.056-0.373 0.154l-6.325 6.325 0.745 0.745 6.171-6.171h12.38c-0.11 0.626-0.454 1.581-1.529 1.581h-5.798v1.054h5.798c2.085 0 2.636-2.069 2.636-3.163 0-0.291-0.236-0.527-0.527-0.527z"></path>
<path d="M28.739 17.022c-0.206-0.206-0.54-0.206-0.745 0l-4.744 4.744 0.745 0.745 4.33-4.33c0.713 0.947 0.569 2.285-0.331 3.057l-6.171 6.171h-10.851c-0.14 0-0.274 0.056-0.373 0.154l-3.69 3.69 0.745 0.745 3.535-3.535h10.851c0.14 0 0.274-0.056 0.373-0.154l6.325-6.325c1.963-1.963 0.858-4.104 0-4.962z"></path>
<path d="M25.731 7.38h-1.894c-0.145-0.484-0.339-0.952-0.579-1.396l1.34-1.34c0.206-0.206 0.206-0.54 0-0.745l-2.237-2.237c-0.206-0.206-0.54-0.206-0.745 0l-1.34 1.34c-0.444-0.241-0.912-0.435-1.396-0.58v-1.894c0-0.291-0.236-0.527-0.527-0.527h-3.163c-0.291 0-0.527 0.236-0.527 0.527v1.894c-0.484 0.144-0.952 0.339-1.396 0.58l-1.34-1.34c-0.206-0.206-0.54-0.206-0.745 0l-2.237 2.237c-0.206 0.206-0.206 0.54 0 0.745l1.341 1.34c-0.241 0.444-0.435 0.912-0.58 1.396h-1.894c-0.291 0-0.527 0.236-0.527 0.527v3.163c0 0.291 0.236 0.527 0.527 0.527h1.894c0.145 0.484 0.339 0.952 0.579 1.396l-1.34 1.34c-0.206 0.206-0.206 0.54 0 0.745l2.237 2.237c0.209 0.198 0.536 0.198 0.745 0l1.34-1.341c0.444 0.241 0.912 0.435 1.396 0.58v1.894c0 0.291 0.236 0.527 0.527 0.527h3.163c0.291 0 0.527-0.236 0.527-0.527v-1.894c0.484-0.145 0.952-0.339 1.396-0.579l1.34 1.34c0.099 0.099 0.233 0.154 0.373 0.154s0.274-0.056 0.373-0.154l2.237-2.237c0.206-0.206 0.206-0.54 0-0.745l-1.34-1.34c0.241-0.444 0.435-0.912 0.58-1.396h1.894c0.291 0 0.527-0.236 0.527-0.527v-3.163c0-0.291-0.236-0.527-0.527-0.527zM25.204 10.542h-1.772c-0.244 0-0.457 0.168-0.513 0.406-0.156 0.655-0.416 1.281-0.77 1.854-0.128 0.208-0.097 0.477 0.076 0.65l1.254 1.254-1.492 1.492-1.253-1.255c-0.173-0.173-0.442-0.204-0.65-0.076-0.573 0.354-1.199 0.614-1.854 0.77-0.238 0.056-0.406 0.268-0.406 0.513v1.772h-2.108v-1.771c-0-0.244-0.168-0.457-0.406-0.513-0.655-0.156-1.281-0.416-1.854-0.77-0.208-0.129-0.477-0.097-0.65 0.076l-1.254 1.255-1.492-1.492 1.254-1.255c0.173-0.173 0.204-0.442 0.076-0.65-0.354-0.573-0.614-1.199-0.77-1.854-0.056-0.238-0.268-0.406-0.513-0.406h-1.772v-2.108h1.772c0.244-0 0.457-0.168 0.513-0.406 0.156-0.655 0.416-1.281 0.77-1.854 0.129-0.208 0.097-0.477-0.076-0.65l-1.254-1.253 1.491-1.491 1.254 1.254c0.173 0.173 0.442 0.204 0.65 0.076 0.573-0.354 1.199-0.614 1.854-0.77 0.238-0.056 0.406-0.268 0.406-0.513v-1.772h2.108v1.772c0 0.245 0.168 0.457 0.406 0.513 0.655 0.155 1.282 0.415 1.854 0.77 0.208 0.128 0.477 0.097 0.65-0.076l1.253-1.254 1.491 1.491-1.254 1.254c-0.173 0.173-0.204 0.442-0.076 0.65 0.354 0.573 0.614 1.199 0.77 1.854 0.056 0.238 0.268 0.406 0.513 0.406h1.772v2.108z"></path>
<path d="M16.77 6.325c-1.747 0-3.163 1.416-3.163 3.163s1.416 3.163 3.163 3.163c1.746-0.002 3.161-1.417 3.163-3.163 0-1.747-1.416-3.163-3.163-3.163zM16.77 11.597c-1.164 0-2.108-0.944-2.108-2.108s0.944-2.108 2.108-2.108c1.164 0 2.108 0.944 2.108 2.108s-0.944 2.108-2.108 2.108z"></path>
</symbol>
<symbol id="icon-snap" viewBox="0 0 32 32">
<path d="M28.79 0.625h-26.044c-1.17 0-2.121 0.97-2.121 2.163v26.258c0 1.192 0.952 2.163 2.118 2.163 0.196 0.002 19.709 0.156 27.406 0.167h0.002c0.001 0 0.001 0 0.002 0 0.338 0 0.643-0.139 0.862-0.363l0-0c0.222-0.225 0.36-0.534 0.36-0.875 0-0.009-0-0.018-0-0.027l0 0.001-0.464-27.362c-0.021-1.171-0.972-2.124-2.121-2.124zM2.746 1.375h26.044c0.742 0 1.357 0.622 1.371 1.386l0.407 24.015-6.049-6.216c-0.376-0.599-1.033-0.991-1.782-0.991-0.648 0-1.227 0.294-1.612 0.755l-0.003 0.003-2.814 3.363c-0.247 0.3-0.619 0.49-1.035 0.49-0.042 0-0.083-0.002-0.123-0.006l0.005 0c-0.457-0.040-0.846-0.303-1.060-0.678l-0.003-0.007-5.078-8.786c-0.368-0.64-1.047-1.064-1.826-1.064-0.685 0-1.293 0.328-1.676 0.835l-0.004 0.005-6.132 7.082v-18.776c0-0.779 0.615-1.413 1.371-1.413zM30.482 30.485c-0.084 0.086-0.201 0.14-0.33 0.14h-0.001c-7.695-0.012-27.206-0.166-27.405-0.167-0.756 0-1.371-0.634-1.371-1.413v-6.336l6.724-7.768c0.248-0.336 0.643-0.551 1.088-0.551 0.503 0 0.942 0.275 1.174 0.683l0.004 0.007 5.078 8.786c0.368 0.64 1.047 1.064 1.826 1.064 0.648 0 1.227-0.294 1.612-0.755l0.003-0.003 2.814-3.363c0.249-0.3 0.622-0.49 1.040-0.49 0.493 0 0.925 0.265 1.16 0.661l0.003 0.006 0.022 0.037 6.663 6.848 0.038 2.252c0 0.003 0 0.007 0 0.011 0 0.137-0.055 0.261-0.144 0.351l0-0z"></path>
<path d="M17.812 13.656c1.856 0 3.366-1.542 3.366-3.437s-1.51-3.437-3.366-3.437-3.366 1.542-3.366 3.437 1.51 3.437 3.366 3.437zM17.812 7.532c1.443 0 2.616 1.205 2.616 2.687s-1.174 2.688-2.616 2.688-2.616-1.206-2.616-2.687 1.173-2.687 2.616-2.687z"></path>
</symbol>
<symbol id="icon-tick" viewBox="0 0 32 32">
<path fill="none" stroke="#2dd5a7" style="stroke: var(--color5, #2dd5a7)" stroke-linejoin="miter" stroke-linecap="butt" stroke-miterlimit="4" stroke-width="4" d="M4 13l8 8 16-16"></path>
</symbol>
<symbol id="icon-wordpress" viewBox="0 0 32 32">
<path d="M2.567 9.529c-0.089-0.244-0.317-0.409-0.577-0.418-0.261-0.008-0.499 0.14-0.604 0.377-0.919 2.061-1.386 4.252-1.386 6.511 0 3.060 0.867 6.035 2.508 8.602 1.597 2.499 3.848 4.503 6.51 5.796 0.089 0.043 0.184 0.064 0.278 0.064 0.155 0 0.308-0.056 0.427-0.164 0.193-0.174 0.261-0.448 0.172-0.692l-7.328-20.077zM1.276 15.999c0-1.517 0.228-3 0.68-4.427l6.156 16.866c-4.255-2.686-6.836-7.315-6.836-12.439z"></path>
<path d="M21.586 30.048l-4.717-12.923c-0.092-0.252-0.331-0.419-0.599-0.419-0.002 0-0.004 0-0.006 0-0.27 0.003-0.509 0.175-0.597 0.43l-4.61 13.393c-0.057 0.165-0.044 0.345 0.036 0.5s0.22 0.27 0.387 0.319c1.471 0.433 2.992 0.652 4.519 0.652 1.816 0 3.604-0.305 5.313-0.907 0.182-0.064 0.325-0.207 0.389-0.388s0.043-0.383-0.058-0.547c-0.026-0.043-0.045-0.078-0.059-0.11zM16 30.725c-1.184 0-2.363-0.143-3.515-0.426l3.803-11.048 3.96 10.849c-1.377 0.415-2.802 0.625-4.248 0.625z"></path>
<path d="M23.331 25.243c0.27 0 0.51-0.17 0.601-0.424l1.696-4.777c0.814-2.087 1.209-3.785 1.209-5.189 0-2.117-0.626-3.213-1.179-4.181-0.003-0.006-0.007-0.012-0.010-0.018-0.061-0.1-0.122-0.198-0.183-0.296-0.661-1.067-1.231-1.988-1.231-2.973 0-1.005 0.742-2.089 1.942-2.089 0.020 0 0.050 0.003 0.083 0.005 0.025 0.002 0.050 0.004 0.076 0.006 0.271 0.018 0.521-0.138 0.627-0.386s0.044-0.537-0.156-0.72c-2.956-2.709-6.793-4.201-10.805-4.201-5.396 0-10.393 2.695-13.368 7.21-0.127 0.193-0.14 0.439-0.034 0.644s0.314 0.336 0.545 0.344c0.393 0.013 0.732 0.020 1.010 0.020 1.48 0 3.649-0.159 4.074-0.192 0.068 0.123 0.075 0.415 0.009 0.524-0.168 0.019-0.895 0.097-1.681 0.138-0.199 0.010-0.382 0.113-0.494 0.278s-0.141 0.373-0.077 0.562l5.030 14.973c0.087 0.26 0.33 0.434 0.604 0.434 0 0 0.001 0 0.001 0 0.274-0 0.517-0.176 0.604-0.436l3.362-10.083c0.046-0.138 0.043-0.288-0.008-0.425l-1.829-4.89c-0.088-0.236-0.308-0.398-0.56-0.413-0.724-0.042-1.423-0.124-1.549-0.139-0.057-0.122-0.044-0.402 0.024-0.523 0.438 0.033 2.631 0.191 4.021 0.191 1.481 0 3.649-0.159 4.074-0.192 0.068 0.123 0.075 0.415 0.009 0.524-0.167 0.019-0.895 0.097-1.681 0.138-0.2 0.010-0.383 0.114-0.495 0.279s-0.14 0.374-0.075 0.563l5.213 15.281c0.088 0.257 0.328 0.43 0.599 0.432 0.001 0 0.003 0 0.004 0zM18.989 9.905c0.544-0.044 0.937-0.090 0.961-0.093 0.733-0.087 1.208-0.796 1.129-1.688-0.075-0.852-0.627-1.418-1.339-1.376-0.004 0-0.008 0-0.012 0.001-0.025 0.002-2.482 0.193-4.045 0.193-1.467 0-3.972-0.191-3.997-0.193-0.004-0-0.008-0.001-0.011-0.001-0.724-0.043-1.291 0.568-1.343 1.452-0.052 0.883 0.429 1.557 1.147 1.614 0.101 0.012 0.61 0.073 1.219 0.119l1.606 4.294-2.688 8.062-4.16-12.384c0.546-0.044 0.941-0.090 0.965-0.093 0.733-0.087 1.207-0.797 1.128-1.688-0.075-0.852-0.627-1.419-1.339-1.375-0.004 0-0.008 0-0.012 0.001-0.023 0.002-2.243 0.175-3.805 0.192 2.784-3.569 7.040-5.667 11.607-5.667 3.245 0 6.367 1.061 8.922 3.012-1.153 0.512-1.964 1.708-1.964 3.098 0 1.348 0.691 2.464 1.422 3.645 0.058 0.094 0.116 0.188 0.175 0.284 0.518 0.907 1.006 1.767 1.006 3.539 0 1.228-0.379 2.821-1.125 4.735-0.002 0.006-0.005 0.012-0.007 0.018l-1.087 3.061-4.353-12.761z"></path>
<path d="M30.039 8.323c-0.148-0.269-0.466-0.395-0.758-0.299s-0.474 0.387-0.432 0.691c0.065 0.479 0.098 0.982 0.098 1.494 0 1.677-0.357 3.35-1.123 5.265-0.004 0.009-0.007 0.019-0.011 0.028l-4.692 13.566c-0.087 0.252-0.008 0.532 0.198 0.701 0.117 0.096 0.26 0.145 0.405 0.145 0.11 0 0.221-0.029 0.321-0.087 2.376-1.385 4.368-3.37 5.761-5.74 1.436-2.443 2.194-5.24 2.194-8.089-0-2.681-0.678-5.336-1.96-7.676zM24.947 27.689l4.066-11.755c0.583-1.461 0.946-2.799 1.108-4.108 0.398 1.349 0.603 2.757 0.603 4.173 0 4.594-2.175 8.923-5.777 11.69z"></path>
<path d="M16.393 23.108c-0.334-0.111-0.695 0.069-0.806 0.403l-0.085 0.255c-0.111 0.334 0.069 0.695 0.403 0.806 0.067 0.022 0.135 0.033 0.202 0.033 0.267 0 0.516-0.169 0.605-0.436l0.085-0.255c0.111-0.334-0.069-0.695-0.403-0.806z"></path>
<path d="M15.607 25.467c-0.334-0.112-0.695 0.069-0.806 0.403l-1.062 3.187c-0.111 0.334 0.069 0.695 0.403 0.806 0.067 0.022 0.135 0.033 0.202 0.033 0.267 0 0.516-0.169 0.605-0.436l1.062-3.187c0.111-0.334-0.069-0.695-0.403-0.806z"></path>
</symbol>
</defs>
</svg>
